<?xml version="1.0" encoding="UTF-8"?>
<!DOCTYPE svg PUBLIC "-//W3C//DTD SVG 1.1//EN" "http://www.w3.org/Graphics/SVG/1.1/DTD/svg11.dtd">
<!-- Creator: CorelDRAW -->
<svg xmlns="http://www.w3.org/2000/svg" xml:space="preserve" width="30px" height="30px" version="1.1" style="shape-rendering:geometricPrecision; text-rendering:geometricPrecision; image-rendering:optimizeQuality; fill-rule:evenodd; clip-rule:evenodd"
viewBox="0 0 30 30"
 xmlns:xlink="http://www.w3.org/1999/xlink"
 xmlns:xodm="http://www.corel.com/coreldraw/odm/2003">
 <defs>
  <style type="text/css">
   <![CDATA[
    .fil1 {fill:#0089B3}
    .fil0 {fill:#0089B3;fill-rule:nonzero}
   ]]>
  </style>
 </defs>
 <g id="Layer_x0020_1">
  <metadata id="CorelCorpID_0Corel-Layer"/>
  <g id="_2661861350480">
   <g>
    <path class="fil0" d="M28.17 6.9l-26.34 0 0 -3.25 26.34 0 1.62 1.63 -1.62 1.62zm0 -3.25c0.89,0 1.62,0.73 1.62,1.63 0,0.89 -0.73,1.62 -1.62,1.62l0 -3.25zm-1.62 24.51l0 -22.88 3.24 0 0 22.88 -1.62 1.63 -1.62 -1.63zm3.24 0c0,0.9 -0.73,1.63 -1.62,1.63 -0.9,0 -1.62,-0.73 -1.62,-1.63l3.24 0zm-27.96 -1.62l26.34 0 0 3.25 -26.34 0 -1.62 -1.63 1.62 -1.62zm0 3.25c-0.89,0 -1.62,-0.73 -1.62,-1.63 0,-0.89 0.73,-1.62 1.62,-1.62l0 3.25zm1.62 -24.51l0 22.88 -3.24 0 0 -22.88 1.62 -1.63 1.62 1.63zm-3.24 0c0,-0.9 0.73,-1.63 1.62,-1.63 0.9,0 1.62,0.73 1.62,1.63l-3.24 0z"/>
   </g>
   <g>
    <rect class="fil1" x="5.47" y="10.37" width="4.19" height="4.24" rx="1.28" ry="1.29"/>
    <rect class="fil1" x="5.47" y="15.39" width="4.19" height="4.24" rx="1.28" ry="1.29"/>
    <rect class="fil1" x="5.47" y="20.4" width="4.19" height="4.24" rx="1.28" ry="1.29"/>
    <rect class="fil1" x="10.43" y="10.37" width="4.19" height="4.24" rx="1.28" ry="1.29"/>
    <rect class="fil1" x="10.43" y="15.39" width="4.19" height="4.24" rx="1.28" ry="1.29"/>
    <rect class="fil1" x="10.43" y="20.4" width="4.19" height="4.24" rx="1.28" ry="1.29"/>
    <rect class="fil1" x="15.38" y="10.37" width="4.19" height="4.24" rx="1.28" ry="1.29"/>
    <rect class="fil1" x="15.38" y="15.39" width="4.19" height="4.24" rx="1.28" ry="1.29"/>
    <rect class="fil1" x="15.38" y="20.4" width="4.19" height="4.24" rx="1.28" ry="1.29"/>
    <rect class="fil1" x="20.34" y="10.37" width="4.19" height="4.24" rx="1.28" ry="1.29"/>
    <rect class="fil1" x="20.34" y="15.39" width="4.19" height="4.24" rx="1.28" ry="1.29"/>
   </g>
   <g>
    <g>
     <path class="fil0" d="M3.16 1.83c0,-0.89 0.72,-1.62 1.62,-1.62 0.89,0 1.62,0.73 1.62,1.62l-3.24 0zm0 3.25l0 -3.25 3.24 0 0 3.25 -3.24 0zm3.24 0c0,0.89 -0.73,1.62 -1.62,1.62 -0.9,0 -1.62,-0.73 -1.62,-1.62l3.24 0z"/>
    </g>
    <g>
     <path class="fil0" d="M8.27 1.83c0,-0.89 0.72,-1.62 1.62,-1.62 0.89,0 1.62,0.73 1.62,1.62l-3.24 0zm0 3.25l0 -3.25 3.24 0 0 3.25 -3.24 0zm3.24 0c0,0.89 -0.73,1.62 -1.62,1.62 -0.9,0 -1.62,-0.73 -1.62,-1.62l3.24 0z"/>
    </g>
    <g>
     <path class="fil0" d="M13.38 1.83c0,-0.89 0.72,-1.62 1.62,-1.62 0.9,0 1.62,0.73 1.62,1.62l-3.24 0zm0 3.25l0 -3.25 3.24 0 0 3.25 -3.24 0zm3.24 0c0,0.89 -0.72,1.62 -1.62,1.62 -0.9,0 -1.62,-0.73 -1.62,-1.62l3.24 0z"/>
    </g>
    <g>
     <path class="fil0" d="M18.49 1.83c0,-0.89 0.73,-1.62 1.62,-1.62 0.9,0 1.62,0.73 1.62,1.62l-3.24 0zm0 3.25l0 -3.25 3.24 0 0 3.25 -3.24 0zm3.24 0c0,0.89 -0.72,1.62 -1.62,1.62 -0.89,0 -1.62,-0.73 -1.62,-1.62l3.24 0z"/>
    </g>
    <g>
     <path class="fil0" d="M23.6 1.83c0,-0.89 0.73,-1.62 1.62,-1.62 0.9,0 1.62,0.73 1.62,1.62l-3.24 0zm0 3.25l0 -3.25 3.24 0 0 3.25 -3.24 0zm3.24 0c0,0.89 -0.72,1.62 -1.62,1.62 -0.89,0 -1.62,-0.73 -1.62,-1.62l3.24 0z"/>
    </g>
   </g>
  </g>
 </g>
</svg>
