<?xml version="1.0" encoding="UTF-8"?>
<!DOCTYPE svg PUBLIC "-//W3C//DTD SVG 1.1//EN" "http://www.w3.org/Graphics/SVG/1.1/DTD/svg11.dtd">
<!-- Creator: CorelDRAW -->
<svg xmlns="http://www.w3.org/2000/svg" xml:space="preserve" width="30px" height="30px" version="1.1" style="shape-rendering:geometricPrecision; text-rendering:geometricPrecision; image-rendering:optimizeQuality; fill-rule:evenodd; clip-rule:evenodd"
viewBox="0 0 30 30"
 xmlns:xlink="http://www.w3.org/1999/xlink"
 xmlns:xodm="http://www.corel.com/coreldraw/odm/2003">
 <defs>
  <style type="text/css">
   <![CDATA[
    .fil0 {fill:#0089B3;fill-rule:nonzero}
   ]]>
  </style>
 </defs>
 <g id="Layer_x0020_1">
  <metadata id="CorelCorpID_0Corel-Layer"/>
  <g id="_2661894574096">
   <g>
    <path class="fil0" d="M8.31 2.97l-5.34 5.34 -2.28 -2.29 5.33 -5.33 2.28 0 0.01 2.28zm-2.29 -2.28c0.63,-0.63 1.65,-0.63 2.28,0 0.63,0.63 0.63,1.65 0.01,2.28l-2.29 -2.28zm18.14 20.41l-18.13 -18.13 2.27 -2.28 18.13 18.13 0.01 2.28 -2.28 0zm2.27 -2.28c0.63,0.63 0.63,1.65 0.01,2.28 -0.63,0.63 -1.65,0.63 -2.28,0l2.27 -2.28zm-7.61 5.33l5.33 -5.33 2.29 2.28 -5.34 5.34 -2.28 -0.01 0 -2.28zm2.28 2.29c-0.63,0.62 -1.65,0.62 -2.28,-0.01 -0.63,-0.63 -0.63,-1.65 0,-2.28l2.28 2.29zm-18.13 -20.41l18.13 18.13 -2.28 2.27 -18.13 -18.13 0 -2.28 2.28 0.01zm-2.28 2.27c-0.63,-0.63 -0.63,-1.65 0,-2.28 0.63,-0.62 1.65,-0.62 2.28,0.01l-2.28 2.27z"/>
   </g>
   <g>
    <path class="fil0" d="M25.33 24.68l3.06 -1 1.31 3.98 -3.06 1.01 -1.31 -3.99zm3.06 -1l-3.06 1c-0.28,-0.84 0.18,-1.75 1.03,-2.03 0.84,-0.28 1.75,0.18 2.03,1.03zm-4.37 -2.99l0.39 -1.64 2.67 0.64 1.31 3.99 -3.06 1 -1.31 -3.99zm3.06 -1l-3.06 1c-0.28,-0.84 0.18,-1.75 1.02,-2.03 0.85,-0.28 1.76,0.18 2.04,1.03zm-3.07 4.32l-2.28 -2.28 2.68 -2.68 2.28 2.28 -2.68 2.68zm-2.28 -2.28l2.28 2.28c-0.63,0.63 -1.65,0.63 -2.28,0 -0.63,-0.63 -0.63,-1.65 0,-2.28zm-0.4 4.95l-1.64 0.4 -0.64 -2.67 2.68 -2.68 2.28 2.28 -2.68 2.67zm-2.28 -2.27l2.28 2.27c-0.63,0.63 -1.65,0.63 -2.28,0 -0.62,-0.62 -0.62,-1.64 0,-2.27zm5.63 0.92l-1 3.06 -3.99 -1.31 1.01 -3.06 3.98 1.31zm-1 3.06l1 -3.06c0.85,0.28 1.31,1.19 1.03,2.03 -0.28,0.84 -1.19,1.3 -2.03,1.03zm4.99 -1.75l1.03 1.02 -2.03 2.04 -3.99 -1.31 1 -3.06 3.99 1.31zm-1 3.06l1 -3.06c0.85,0.28 1.31,1.19 1.03,2.03 -0.28,0.85 -1.19,1.31 -2.03,1.03z"/>
   </g>
   <g>
    <polygon class="fil0" points="12.39,7.05 7.05,12.39 4.78,10.11 10.11,4.78 "/>
   </g>
  </g>
 </g>
</svg>
