<?xml version="1.0" encoding="UTF-8"?>
<svg xmlns="http://www.w3.org/2000/svg" xmlns:xlink="http://www.w3.org/1999/xlink" width="13px" height="13px" viewBox="0 0 13 13" version="1.1">
<g id="surface1">
<path style=" stroke:none;fill-rule:nonzero;fill:rgb(11.372549%,11.372549%,10.588235%);fill-opacity:1;" d="M 1.5625 5.46875 C 2.175781 5.203125 2.804688 4.976562 3.453125 4.789062 C 3.832031 4.691406 4.214844 4.621094 4.605469 4.574219 C 4.605469 4.574219 5.066406 3.539062 5.332031 3.015625 C 5.597656 2.496094 5.773438 2.148438 6.0625 2.117188 C 6.355469 2.089844 6.941406 3.015625 7.222656 3.507812 C 7.507812 4 7.753906 4.40625 7.753906 4.40625 C 7.753906 4.40625 9.726562 4.585938 10.4375 4.613281 C 11.148438 4.648438 11.410156 4.667969 11.480469 4.859375 C 11.558594 5.050781 9.855469 6.28125 9.515625 6.542969 C 9.320312 6.699219 9.136719 6.867188 8.972656 7.050781 C 8.972656 7.050781 9.332031 8.351562 9.566406 9.300781 C 9.804688 10.246094 9.902344 10.601562 9.792969 10.785156 C 9.6875 10.96875 9.355469 10.871094 9.074219 10.707031 C 8.789062 10.550781 7.535156 9.738281 7.066406 9.46875 C 6.59375 9.203125 6.417969 9.226562 6.386719 9.230469 C 6.355469 9.238281 4.59375 10.171875 4.039062 10.480469 C 3.476562 10.789062 3.171875 10.804688 3.046875 10.765625 C 2.921875 10.726562 2.984375 10.402344 3.03125 10.15625 C 3.070312 9.910156 3.777344 7.394531 3.777344 7.355469 C 3.34375 6.933594 2.867188 6.554688 2.355469 6.226562 C 1.828125 5.890625 1.636719 5.808594 1.589844 5.773438 C 1.546875 5.734375 1.460938 5.507812 1.5625 5.46875 Z M 1.5625 5.46875 "/>
<path style=" stroke:none;fill-rule:nonzero;fill:rgb(98.039216%,72.549021%,0%);fill-opacity:1;" d="M 2.210938 5.574219 C 2.25 5.503906 3.515625 5.09375 4.078125 4.964844 C 4.648438 4.835938 4.75 4.851562 4.777344 4.828125 C 4.8125 4.796875 5.347656 3.695312 5.628906 3.175781 C 5.90625 2.664062 6.007812 2.535156 6.054688 2.535156 C 6.4375 3.035156 6.789062 3.558594 7.109375 4.101562 C 7.371094 4.558594 7.417969 4.671875 7.457031 4.671875 C 7.496094 4.671875 9.355469 4.835938 9.996094 4.875 C 10.636719 4.914062 10.933594 4.960938 10.910156 5 C 10.882812 5.046875 9.796875 5.839844 9.285156 6.285156 C 8.773438 6.726562 8.53125 6.890625 8.542969 6.964844 C 8.554688 7.042969 8.851562 8.265625 8.832031 8.246094 C 8.605469 8.121094 8.367188 8.011719 8.125 7.921875 C 8.101562 7.945312 7.992188 8.089844 8.042969 8.140625 C 8.09375 8.191406 8.878906 8.546875 8.878906 8.589844 C 8.878906 8.628906 8.945312 8.933594 8.945312 8.933594 C 8.945312 8.933594 7.878906 8.324219 7.835938 8.324219 C 7.789062 8.324219 7.65625 8.433594 7.6875 8.480469 C 7.722656 8.527344 8.972656 9.203125 9 9.246094 C 9.054688 9.347656 9.097656 9.449219 9.117188 9.558594 C 9.097656 9.558594 7.550781 8.644531 7.492188 8.65625 C 7.433594 8.671875 7.335938 8.847656 7.355469 8.859375 C 7.375 8.875 9.164062 9.914062 9.199219 9.964844 C 9.230469 10.015625 9.378906 10.371094 9.339844 10.371094 C 9.300781 10.371094 7.796875 9.488281 7.226562 9.175781 C 6.65625 8.855469 6.519531 8.8125 6.414062 8.820312 C 5.617188 9.164062 4.835938 9.554688 4.082031 9.988281 C 3.644531 10.253906 3.472656 10.300781 3.457031 10.269531 C 3.445312 10.238281 3.957031 8.226562 4.066406 7.730469 C 4.179688 7.234375 4.226562 7.148438 4.101562 6.992188 C 3.769531 6.660156 3.394531 6.371094 2.988281 6.132812 C 2.460938 5.804688 2.191406 5.605469 2.210938 5.574219 Z M 2.210938 5.574219 "/>
<path style=" stroke:none;fill-rule:nonzero;fill:rgb(11.372549%,11.372549%,10.588235%);fill-opacity:1;" d="M 5.496094 4.265625 C 5.425781 4.203125 5.9375 3.3125 5.96875 3.3125 C 5.992188 3.3125 6.132812 3.347656 6.140625 3.394531 C 6.03125 3.722656 5.894531 4.046875 5.734375 4.355469 C 5.648438 4.34375 5.570312 4.308594 5.496094 4.265625 Z M 5.496094 4.265625 "/>
</g>
</svg>
